<svg width="30" height="30" viewBox="0 0 30 30" fill="none" xmlns="http://www.w3.org/2000/svg">
<g clip-path="url(#clip0_959_535)">
<path d="M19.5419 11.9806L19.5419 11.9806C18.231 13.2917 16.639 13.9511 14.7863 13.9511C12.9342 13.9511 11.3424 13.2916 10.0312 11.9808C8.72008 10.6699 8.06055 9.07815 8.06055 7.22531C8.06055 5.37294 8.72008 3.78119 10.031 2.47024C11.342 1.15933 12.9335 0.5 14.7863 0.5C16.6387 0.5 18.2305 1.1593 19.5416 2.46999C20.8528 3.78139 21.5121 5.37316 21.5121 7.22531C21.5121 9.07818 20.8528 10.6697 19.5419 11.9806Z" stroke="#049257"/>
<path d="M26.9307 23.1034L26.9306 23.103C26.8916 22.5392 26.8122 21.9197 26.6942 21.2611L26.9307 23.1034ZM26.9307 23.1034C26.9698 23.6624 26.9899 24.2469 26.9901 24.8404L26.9307 23.1034ZM26.2439 19.4194L26.2439 19.4193C26.061 18.8475 25.8114 18.2809 25.502 17.7365C25.185 17.1789 24.8166 16.7004 24.4096 16.3111L24.4095 16.311C23.9944 15.9139 23.4801 15.5885 22.8741 15.3483L26.2439 19.4194ZM26.2439 19.4194C26.4241 19.9821 26.5759 20.6017 26.6942 21.261L26.2439 19.4194ZM18.7629 16.1994L18.7623 16.1998C18.3208 16.4811 17.7451 16.7314 17.0646 16.9512L18.7629 16.1994ZM18.7629 16.1994C19.2233 15.9052 19.6363 15.6389 19.9898 15.4084C20.5585 15.0381 20.7453 14.9913 20.8914 14.9913C21.6146 14.9913 22.2804 15.1135 22.8738 15.3482L18.7629 16.1994ZM11.1878 16.1999L11.1874 16.1996C10.7313 15.9081 10.318 15.6418 9.95923 15.4081L9.95913 15.408C9.39138 15.0379 9.2043 14.9911 9.05823 14.9911C8.33476 14.9911 7.66922 15.1135 7.07599 15.3485L7.07591 15.3485C6.47039 15.5882 5.9558 15.9135 5.54024 16.3111L11.1878 16.1999ZM11.1878 16.1999C11.629 16.4813 12.2048 16.7317 12.8847 16.9513L11.1878 16.1999ZM4.44822 17.7363L4.44819 17.7364C4.13891 18.2808 3.8894 18.8473 3.70622 19.4194L4.44822 17.7363ZM4.44822 17.7363C4.76457 17.1793 5.1331 16.7009 5.54014 16.3112L4.44822 17.7363ZM3.01971 23.1036L3.01971 23.1037C2.98072 23.6657 2.96094 24.2499 2.96094 24.8406C2.96094 26.2929 3.41826 27.4216 4.28527 28.2473C5.14658 29.0669 6.29852 29.5001 7.75291 29.5001H22.1981C23.6526 29.5001 24.8041 29.067 25.6657 28.2472L25.6657 28.2472C26.5327 27.4222 26.99 26.2936 26.9901 24.8406L3.01971 23.1036ZM3.01971 23.1036C3.05879 22.5384 3.13816 21.9187 3.25611 21.2611L3.01971 23.1036ZM14.9748 17.2884C15.6724 17.2884 16.3756 17.1741 17.0644 16.9513L12.8848 16.9513C13.5742 17.1741 14.2771 17.2884 14.9748 17.2884ZM3.25612 21.2611C3.37444 20.6019 3.52618 19.9824 3.70618 19.4196L3.25612 21.2611Z" stroke="#049257"/>
</g>
<defs>
<clipPath id="clip0_959_535">
<rect width="30" height="30" fill="white"/>
</clipPath>
</defs>
</svg>
